<svg width="20" height="20" viewBox="0 0 20 20" fill="none" xmlns="http://www.w3.org/2000/svg">
<path d="M9.21053 0C9.41991 0 9.62071 0.0903058 9.76877 0.251051C9.91682 0.411797 10 0.629814 10 0.857143C10 1.08447 9.91682 1.30249 9.76877 1.46323C9.62071 1.62398 9.41991 1.71429 9.21053 1.71429C7.18651 1.71429 5.24538 2.58724 3.81419 4.14112C2.38299 5.69499 1.57895 7.80249 1.57895 10C1.57895 12.1975 2.38299 14.305 3.81419 15.8589C5.24538 17.4128 7.18651 18.2857 9.21053 18.2857C9.41991 18.2857 9.62071 18.376 9.76877 18.5368C9.91682 18.6975 10 18.9155 10 19.1429C10 19.3702 9.91682 19.5882 9.76877 19.749C9.62071 19.9097 9.41991 20 9.21053 20C6.76774 20 4.42501 18.9464 2.6977 17.0711C0.970392 15.1957 0 12.6522 0 10C0 7.34784 0.970392 4.8043 2.6977 2.92893C4.42501 1.05357 6.76774 0 9.21053 0Z" fill="#2E0527"/>
<path d="M15.1622 7.51355C15.0124 7.34294 14.9309 7.11729 14.9348 6.88412C14.9387 6.65096 15.0276 6.4285 15.183 6.2636C15.3383 6.09871 15.5479 6.00425 15.7676 6.00014C15.9872 5.99603 16.1998 6.08258 16.3605 6.24155L19.752 9.84155C19.9108 10.0103 20 10.239 20 10.4776C20 10.7161 19.9108 10.9448 19.752 11.1135L16.3605 14.7135C16.2829 14.802 16.1893 14.8729 16.0853 14.9221C15.9813 14.9713 15.869 14.9977 15.7552 14.9999C15.6413 15.002 15.5283 14.9798 15.4227 14.9345C15.3171 14.8892 15.2212 14.8219 15.1407 14.7364C15.0602 14.6509 14.9967 14.5491 14.9541 14.4371C14.9114 14.325 14.8905 14.205 14.8925 14.0841C14.8945 13.9633 14.9194 13.8441 14.9657 13.7337C15.0121 13.6233 15.0789 13.5239 15.1622 13.4415L17.1067 11.3775H7.84787C7.623 11.3775 7.40734 11.2827 7.24834 11.1139C7.08933 10.9452 7 10.7162 7 10.4776C7 10.2389 7.08933 10.0099 7.24834 9.84115C7.40734 9.67237 7.623 9.57755 7.84787 9.57755H17.1067L15.1622 7.51355Z" fill="#2E0527"/>
</svg>
