<svg width="154" height="17" viewBox="0 0 154 17" fill="none" xmlns="http://www.w3.org/2000/svg">
<path d="M2.92 5.784C2.46133 5.784 2.152 5.72 1.992 5.592C1.84267 5.464 1.768 5.34133 1.768 5.224C1.768 5.05333 1.85333 4.89867 2.024 4.76C2.20533 4.62133 2.424 4.52533 2.68 4.472C2.98933 4.408 3.36267 4.344 3.8 4.28C4.248 4.20533 4.712 4.14133 5.192 4.088C5.672 4.024 6.14133 3.976 6.6 3.944C7.05867 3.912 7.45867 3.896 7.8 3.896C8.248 3.896 8.58933 3.98133 8.824 4.152C9.06933 4.312 9.192 4.46133 9.192 4.6C9.192 4.61067 9.192 4.632 9.192 4.664C9.192 4.74933 9.176 4.824 9.144 4.888C9.112 4.952 9.00533 5.016 8.824 5.08C8.65333 5.13333 8.36 5.192 7.944 5.256C7.53867 5.30933 6.96267 5.368 6.216 5.432C6.06667 5.44267 5.90133 5.45867 5.72 5.48C5.67733 5.768 5.61333 6.14667 5.528 6.616C5.44267 7.08533 5.34667 7.608 5.24 8.184C5.13333 8.76 5.02133 9.352 4.904 9.96C4.78667 10.5573 4.66933 11.128 4.552 11.672C4.44533 12.216 4.34933 12.696 4.264 13.112C4.18933 13.528 4.13067 13.8427 4.088 14.056C4.64267 13.9813 5.13333 13.9333 5.56 13.912C5.99733 13.88 6.29067 13.864 6.44 13.864C6.83467 13.864 7.032 14.0133 7.032 14.312C7.032 14.3973 6.85067 14.52 6.488 14.68C6.12533 14.84 5.66133 15.0053 5.096 15.176C4.53067 15.3467 3.944 15.5067 3.336 15.656C2.83467 15.7733 2.33867 15.864 1.848 15.928C1.368 15.992 1.02133 16.024 0.808 16.024C0.573333 16.024 0.408 15.9813 0.312 15.896C0.216 15.8213 0.168 15.7093 0.168 15.56C0.168 15.4107 0.210667 15.2613 0.296 15.112C0.392 14.9627 0.52 14.856 0.68 14.792C0.968 14.6853 1.288 14.5893 1.64 14.504C1.992 14.408 2.34933 14.3227 2.712 14.248C2.712 14.1947 2.712 14.1307 2.712 14.056C2.712 13.9067 2.73867 13.624 2.792 13.208C2.856 12.792 2.936 12.296 3.032 11.72C3.128 11.1333 3.23467 10.5253 3.352 9.896C3.46933 9.256 3.58133 8.648 3.688 8.072C3.79467 7.48533 3.89067 6.97867 3.976 6.552C4.06133 6.11467 4.12533 5.82133 4.168 5.672C3.90133 5.704 3.66133 5.73067 3.448 5.752C3.23467 5.77333 3.05867 5.784 2.92 5.784ZM15.8596 15.176C15.7636 15.176 15.5716 15.1707 15.2836 15.16C15.0063 15.1493 14.6756 15.1333 14.2916 15.112C13.9076 15.0907 13.5076 15.0693 13.0916 15.048C12.6863 15.0267 12.3023 15.0107 11.9396 15C11.5876 14.9893 11.2943 14.984 11.0596 14.984C10.7716 14.984 10.5316 14.888 10.3396 14.696C10.1583 14.504 10.0676 14.2373 10.0676 13.896C10.0676 13.672 10.169 13.384 10.3716 13.032C10.5743 12.68 10.8463 12.2907 11.1876 11.864C11.529 11.4267 11.9076 10.9787 12.3236 10.52C12.7503 10.0613 13.1823 9.61333 13.6196 9.176C14.057 8.73867 14.4783 8.33333 14.8836 7.96C15.289 7.58667 15.641 7.28267 15.9396 7.048C15.2356 7.13333 14.5476 7.24533 13.8756 7.384C13.2036 7.512 12.617 7.62933 12.1156 7.736C11.625 7.84267 11.2943 7.896 11.1236 7.896C10.9103 7.896 10.7396 7.83733 10.6116 7.72C10.4836 7.592 10.4196 7.42133 10.4196 7.208C10.4196 7.09067 10.5476 6.97333 10.8036 6.856C11.0703 6.73867 11.4223 6.62667 11.8596 6.52C12.297 6.41333 12.777 6.32267 13.2996 6.248C13.833 6.16267 14.3716 6.09867 14.9156 6.056C15.4596 6.01333 15.9663 5.992 16.4356 5.992C16.7556 5.992 17.0116 6.088 17.2036 6.28C17.4063 6.472 17.5076 6.67467 17.5076 6.888C17.5076 6.97333 17.385 7.16533 17.1396 7.464C16.8943 7.76267 16.5743 8.12533 16.1796 8.552C15.785 8.97867 15.353 9.43733 14.8836 9.928C14.4143 10.4187 13.9556 10.9093 13.5076 11.4C13.0596 11.88 12.6596 12.328 12.3076 12.744C11.9556 13.1493 11.6996 13.4853 11.5396 13.752C11.8276 13.7413 12.169 13.7307 12.5636 13.72C12.9583 13.7093 13.369 13.6987 13.7956 13.688C14.2223 13.6667 14.6276 13.6507 15.0116 13.64C15.3956 13.6187 15.721 13.6027 15.9876 13.592C16.265 13.5813 16.4463 13.576 16.5316 13.576C16.9583 13.576 17.1716 13.752 17.1716 14.104C17.1716 14.3707 17.049 14.616 16.8036 14.84C16.5583 15.064 16.2436 15.176 15.8596 15.176ZM19.6 15.416C19.1947 15.416 18.8587 15.2293 18.592 14.856C18.336 14.472 18.208 13.976 18.208 13.368C18.208 12.8027 18.3467 12.2427 18.624 11.688C18.912 11.1333 19.2907 10.6 19.76 10.088C20.2293 9.576 20.7413 9.10667 21.296 8.68C21.8507 8.24267 22.4053 7.864 22.96 7.544C23.5253 7.224 24.0427 6.97333 24.512 6.792C24.9813 6.61067 25.3547 6.52 25.632 6.52C25.7813 6.52 25.904 6.552 26 6.616C26.096 6.66933 26.144 6.77067 26.144 6.92C26.144 7.016 26.1067 7.10667 26.032 7.192C26.0427 7.192 26.0533 7.192 26.064 7.192C26.2987 7.192 26.416 7.33067 26.416 7.608C26.416 7.704 26.3787 7.90133 26.304 8.2C26.2293 8.488 26.144 8.85067 26.048 9.288C25.952 9.72533 25.8667 10.2107 25.792 10.744C25.7173 11.2667 25.68 11.8 25.68 12.344C25.68 12.8027 25.856 13.032 26.208 13.032C26.6027 13.032 27.0027 12.9413 27.408 12.76C27.8133 12.5787 28.208 12.36 28.592 12.104C28.976 11.8373 29.328 11.576 29.648 11.32C29.968 11.0533 30.24 10.8293 30.464 10.648C30.688 10.4667 30.848 10.376 30.944 10.376C31.0293 10.376 31.104 10.4027 31.168 10.456C31.232 10.5093 31.264 10.5947 31.264 10.712C31.264 10.8187 31.1573 11.0107 30.944 11.288C30.7307 11.5653 30.448 11.88 30.096 12.232C29.744 12.584 29.3493 12.9253 28.912 13.256C28.4747 13.5867 28.0267 13.8587 27.568 14.072C27.1093 14.2853 26.672 14.392 26.256 14.392C25.936 14.392 25.6427 14.296 25.376 14.104C25.12 13.9013 24.912 13.56 24.752 13.08C24.6027 12.6 24.528 11.9387 24.528 11.096V10.696C24.0053 11.56 23.456 12.3493 22.88 13.064C22.3147 13.7787 21.7493 14.3493 21.184 14.776C20.6293 15.2027 20.1013 15.416 19.6 15.416ZM25.328 7.672C25.2747 7.69333 25.2 7.72533 25.104 7.768C24.6133 7.992 24.1013 8.26933 23.568 8.6C23.0453 8.93067 22.5333 9.29867 22.032 9.704C21.5413 10.1093 21.0987 10.5307 20.704 10.968C20.3093 11.4053 19.9947 11.848 19.76 12.296C19.5253 12.744 19.408 13.1813 19.408 13.608C19.408 13.7467 19.4347 13.8533 19.488 13.928C19.552 14.0027 19.6587 14.04 19.808 14.04C20.0213 14.04 20.2987 13.9067 20.64 13.64C20.9813 13.3627 21.3547 13 21.76 12.552C22.176 12.104 22.592 11.608 23.008 11.064C23.424 10.52 23.8187 9.97067 24.192 9.416C24.576 8.86133 24.9067 8.34933 25.184 7.88C25.2267 7.80533 25.2747 7.736 25.328 7.672ZM36.2264 8.104C36.2264 8.44533 36.1197 8.78133 35.9064 9.112C35.693 9.432 35.4104 9.74133 35.0584 10.04C34.7064 10.328 34.317 10.6 33.8904 10.856C33.4637 11.112 33.037 11.336 32.6104 11.528C32.1837 11.72 31.7944 11.8747 31.4424 11.992C31.357 12.408 31.3144 12.776 31.3144 13.096C31.3144 13.2987 31.3624 13.4427 31.4584 13.528C31.5544 13.6133 31.7037 13.656 31.9064 13.656C32.3544 13.656 32.829 13.576 33.3304 13.416C33.8317 13.256 34.3437 13.048 34.8664 12.792C35.389 12.536 35.8904 12.264 36.3704 11.976C36.8504 11.688 37.2877 11.416 37.6824 11.16C38.0877 10.904 38.4237 10.696 38.6904 10.536C38.957 10.376 39.133 10.296 39.2184 10.296C39.3464 10.296 39.4424 10.3387 39.5064 10.424C39.581 10.4987 39.6184 10.5893 39.6184 10.696C39.6184 10.7813 39.485 10.9467 39.2184 11.192C38.9624 11.4373 38.6157 11.7253 38.1784 12.056C37.741 12.376 37.2504 12.7067 36.7064 13.048C36.1624 13.3893 35.597 13.7093 35.0104 14.008C34.4344 14.3067 33.8744 14.5467 33.3304 14.728C32.797 14.9093 32.317 15 31.8904 15C31.3357 15 30.9037 14.792 30.5944 14.376C30.285 13.96 30.1304 13.3147 30.1304 12.44C30.1304 11.8533 30.205 11.2613 30.3544 10.664C30.5144 10.0667 30.7277 9.496 30.9944 8.952C31.2717 8.39733 31.5757 7.90667 31.9064 7.48C32.2477 7.04267 32.605 6.70133 32.9784 6.456C33.3517 6.2 33.7144 6.072 34.0664 6.072C34.7384 6.072 35.2664 6.25867 35.6504 6.632C36.0344 7.00533 36.2264 7.496 36.2264 8.104ZM31.7784 10.76C32.109 10.5573 32.4504 10.344 32.8024 10.12C33.1544 9.896 33.4797 9.66667 33.7784 9.432C34.077 9.19733 34.317 8.952 34.4984 8.696C34.6904 8.42933 34.7864 8.15733 34.7864 7.88C34.7864 7.48533 34.573 7.288 34.1464 7.288C33.8797 7.288 33.597 7.45867 33.2984 7.8C33.0104 8.13067 32.733 8.56267 32.4664 9.096C32.1997 9.62933 31.9704 10.184 31.7784 10.76ZM41.1758 15.64C40.3544 15.64 39.7091 15.3733 39.2398 14.84C38.7811 14.296 38.5518 13.5387 38.5518 12.568C38.5518 11.9707 38.6318 11.272 38.7918 10.472C38.9624 9.66133 39.1758 8.808 39.4318 7.912C39.6984 7.00533 39.9864 6.10933 40.2958 5.224C40.6051 4.33867 40.9038 3.51733 41.1918 2.76C41.4904 1.992 41.7518 1.352 41.9758 0.839999C42.1038 0.551999 42.2851 0.407999 42.5198 0.407999C42.8398 0.407999 42.9998 0.605332 42.9998 0.999999C42.9998 1.128 42.9411 1.38933 42.8238 1.784C42.7064 2.17867 42.5518 2.66933 42.3598 3.256C42.1678 3.832 41.9598 4.472 41.7358 5.176C41.5118 5.88 41.2824 6.60533 41.0478 7.352C40.8238 8.088 40.6158 8.81867 40.4238 9.544C40.2318 10.2587 40.0771 10.9307 39.9598 11.56C39.8424 12.1893 39.7838 12.728 39.7838 13.176C39.7838 13.464 39.8584 13.6933 40.0078 13.864C40.1678 14.024 40.3811 14.104 40.6478 14.104C41.1384 14.104 41.6291 14.008 42.1198 13.816C42.6211 13.6133 43.1011 13.368 43.5598 13.08C44.0184 12.7813 44.4344 12.488 44.8078 12.2C45.1918 11.9013 45.5171 11.656 45.7838 11.464C46.0504 11.2613 46.2371 11.16 46.3438 11.16C46.5784 11.16 46.6958 11.288 46.6958 11.544C46.6958 11.6293 46.6104 11.7893 46.4398 12.024C46.2691 12.248 46.0398 12.5147 45.7518 12.824C45.4638 13.1333 45.1278 13.4533 44.7438 13.784C44.3704 14.104 43.9758 14.408 43.5598 14.696C43.1544 14.9733 42.7438 15.1973 42.3278 15.368C41.9224 15.5493 41.5384 15.64 41.1758 15.64ZM48.262 15.64C47.4407 15.64 46.7953 15.3733 46.326 14.84C45.8673 14.296 45.638 13.5387 45.638 12.568C45.638 11.9707 45.718 11.272 45.878 10.472C46.0487 9.66133 46.262 8.808 46.518 7.912C46.7847 7.00533 47.0727 6.10933 47.382 5.224C47.6913 4.33867 47.99 3.51733 48.278 2.76C48.5767 1.992 48.838 1.352 49.062 0.839999C49.19 0.551999 49.3713 0.407999 49.606 0.407999C49.926 0.407999 50.086 0.605332 50.086 0.999999C50.086 1.128 50.0273 1.38933 49.91 1.784C49.7927 2.17867 49.638 2.66933 49.446 3.256C49.254 3.832 49.046 4.472 48.822 5.176C48.598 5.88 48.3687 6.60533 48.134 7.352C47.91 8.088 47.702 8.81867 47.51 9.544C47.318 10.2587 47.1633 10.9307 47.046 11.56C46.9287 12.1893 46.87 12.728 46.87 13.176C46.87 13.464 46.9447 13.6933 47.094 13.864C47.254 14.024 47.4673 14.104 47.734 14.104C48.2247 14.104 48.7153 14.008 49.206 13.816C49.7073 13.6133 50.1873 13.368 50.646 13.08C51.1047 12.7813 51.5207 12.488 51.894 12.2C52.278 11.9013 52.6033 11.656 52.87 11.464C53.1367 11.2613 53.3233 11.16 53.43 11.16C53.6647 11.16 53.782 11.288 53.782 11.544C53.782 11.6293 53.6967 11.7893 53.526 12.024C53.3553 12.248 53.126 12.5147 52.838 12.824C52.55 13.1333 52.214 13.4533 51.83 13.784C51.4567 14.104 51.062 14.408 50.646 14.696C50.2407 14.9733 49.83 15.1973 49.414 15.368C49.0087 15.5493 48.6247 15.64 48.262 15.64ZM59.1101 8.104C59.1101 8.44533 59.0035 8.78133 58.7901 9.112C58.5768 9.432 58.2941 9.74133 57.9421 10.04C57.5901 10.328 57.2008 10.6 56.7741 10.856C56.3475 11.112 55.9208 11.336 55.4941 11.528C55.0675 11.72 54.6781 11.8747 54.3261 11.992C54.2408 12.408 54.1981 12.776 54.1981 13.096C54.1981 13.2987 54.2461 13.4427 54.3421 13.528C54.4381 13.6133 54.5875 13.656 54.7901 13.656C55.2381 13.656 55.7128 13.576 56.2141 13.416C56.7155 13.256 57.2275 13.048 57.7501 12.792C58.2728 12.536 58.7741 12.264 59.2541 11.976C59.7341 11.688 60.1715 11.416 60.5661 11.16C60.9715 10.904 61.3075 10.696 61.5741 10.536C61.8408 10.376 62.0168 10.296 62.1021 10.296C62.2301 10.296 62.3261 10.3387 62.3901 10.424C62.4648 10.4987 62.5021 10.5893 62.5021 10.696C62.5021 10.7813 62.3688 10.9467 62.1021 11.192C61.8461 11.4373 61.4995 11.7253 61.0621 12.056C60.6248 12.376 60.1341 12.7067 59.5901 13.048C59.0461 13.3893 58.4808 13.7093 57.8941 14.008C57.3181 14.3067 56.7581 14.5467 56.2141 14.728C55.6808 14.9093 55.2008 15 54.7741 15C54.2195 15 53.7875 14.792 53.4781 14.376C53.1688 13.96 53.0141 13.3147 53.0141 12.44C53.0141 11.8533 53.0888 11.2613 53.2381 10.664C53.3981 10.0667 53.6115 9.496 53.8781 8.952C54.1555 8.39733 54.4595 7.90667 54.7901 7.48C55.1315 7.04267 55.4888 6.70133 55.8621 6.456C56.2355 6.2 56.5981 6.072 56.9501 6.072C57.6221 6.072 58.1501 6.25867 58.5341 6.632C58.9181 7.00533 59.1101 7.496 59.1101 8.104ZM54.6621 10.76C54.9928 10.5573 55.3341 10.344 55.6861 10.12C56.0381 9.896 56.3635 9.66667 56.6621 9.432C56.9608 9.19733 57.2008 8.952 57.3821 8.696C57.5741 8.42933 57.6701 8.15733 57.6701 7.88C57.6701 7.48533 57.4568 7.288 57.0301 7.288C56.7635 7.288 56.4808 7.45867 56.1821 7.8C55.8941 8.13067 55.6168 8.56267 55.3501 9.096C55.0835 9.62933 54.8541 10.184 54.6621 10.76ZM74.7826 8.104C74.7826 8.44533 74.676 8.78133 74.4626 9.112C74.2493 9.432 73.9666 9.74133 73.6146 10.04C73.2626 10.328 72.8733 10.6 72.4466 10.856C72.02 11.112 71.5933 11.336 71.1666 11.528C70.74 11.72 70.3506 11.8747 69.9986 11.992C69.9133 12.408 69.8706 12.776 69.8706 13.096C69.8706 13.2987 69.9186 13.4427 70.0146 13.528C70.1106 13.6133 70.26 13.656 70.4626 13.656C70.9106 13.656 71.3853 13.576 71.8866 13.416C72.388 13.256 72.9 13.048 73.4226 12.792C73.9453 12.536 74.4466 12.264 74.9266 11.976C75.4066 11.688 75.844 11.416 76.2386 11.16C76.644 10.904 76.98 10.696 77.2466 10.536C77.5133 10.376 77.6893 10.296 77.7746 10.296C77.9026 10.296 77.9986 10.3387 78.0626 10.424C78.1373 10.4987 78.1746 10.5893 78.1746 10.696C78.1746 10.7813 78.0413 10.9467 77.7746 11.192C77.5186 11.4373 77.172 11.7253 76.7346 12.056C76.2973 12.376 75.8066 12.7067 75.2626 13.048C74.7186 13.3893 74.1533 13.7093 73.5666 14.008C72.9906 14.3067 72.4306 14.5467 71.8866 14.728C71.3533 14.9093 70.8733 15 70.4466 15C69.892 15 69.46 14.792 69.1506 14.376C68.8413 13.96 68.6866 13.3147 68.6866 12.44C68.6866 11.8533 68.7613 11.2613 68.9106 10.664C69.0706 10.0667 69.284 9.496 69.5506 8.952C69.828 8.39733 70.132 7.90667 70.4626 7.48C70.804 7.04267 71.1613 6.70133 71.5346 6.456C71.908 6.2 72.2706 6.072 72.6226 6.072C73.2946 6.072 73.8226 6.25867 74.2066 6.632C74.5906 7.00533 74.7826 7.496 74.7826 8.104ZM70.3346 10.76C70.6653 10.5573 71.0066 10.344 71.3586 10.12C71.7106 9.896 72.036 9.66667 72.3346 9.432C72.6333 9.19733 72.8733 8.952 73.0546 8.696C73.2466 8.42933 73.3426 8.15733 73.3426 7.88C73.3426 7.48533 73.1293 7.288 72.7026 7.288C72.436 7.288 72.1533 7.45867 71.8546 7.8C71.5666 8.13067 71.2893 8.56267 71.0226 9.096C70.756 9.62933 70.5266 10.184 70.3346 10.76ZM87.3671 15.768C87.0258 15.768 86.6685 15.6827 86.2951 15.512C85.9325 15.352 85.6231 15.0853 85.3671 14.712C85.1218 14.328 84.9991 13.8213 84.9991 13.192C84.9991 12.456 85.0631 11.6773 85.1911 10.856C85.3191 10.0347 85.4845 9.21333 85.6871 8.392C85.9005 7.56 86.1351 6.77067 86.3911 6.024C86.6471 5.27733 86.9031 4.61067 87.1591 4.024C87.4258 3.43733 87.6711 2.97867 87.8951 2.648C88.1191 2.30667 88.3058 2.136 88.4551 2.136C88.6578 2.136 88.8285 2.216 88.9671 2.376C89.1165 2.536 89.1911 2.76 89.1911 3.048C89.1911 3.16533 89.1218 3.44267 88.9831 3.88C88.8445 4.30667 88.6685 4.84533 88.4551 5.496C88.2418 6.14667 88.0125 6.85067 87.7671 7.608C87.5325 8.36533 87.3085 9.128 87.0951 9.896C86.8818 10.664 86.7058 11.3893 86.5671 12.072C86.4285 12.7547 86.3591 13.336 86.3591 13.816C86.3591 13.9547 86.3965 14.088 86.4711 14.216C86.5458 14.3333 86.6685 14.392 86.8391 14.392C87.0738 14.392 87.4098 14.3387 87.8471 14.232C88.2951 14.1253 88.7805 13.9973 89.3031 13.848C89.8258 13.688 90.3271 13.5333 90.8071 13.384C91.2871 13.2347 91.6925 13.1067 92.0231 13C92.3538 12.8933 92.5405 12.84 92.5831 12.84C92.7111 12.84 92.8178 12.8773 92.9031 12.952C92.9885 13.016 93.0311 13.1173 93.0311 13.256C93.0311 13.4267 92.9031 13.624 92.6471 13.848C92.4018 14.072 92.0711 14.296 91.6551 14.52C91.2498 14.744 90.7965 14.9467 90.2951 15.128C89.7938 15.32 89.2871 15.4747 88.7751 15.592C88.2738 15.7093 87.8045 15.768 87.3671 15.768ZM100.979 8.104C100.979 8.44533 100.872 8.78133 100.659 9.112C100.446 9.432 100.163 9.74133 99.8109 10.04C99.4589 10.328 99.0695 10.6 98.6429 10.856C98.2162 11.112 97.7895 11.336 97.3629 11.528C96.9362 11.72 96.5469 11.8747 96.1949 11.992C96.1095 12.408 96.0669 12.776 96.0669 13.096C96.0669 13.2987 96.1149 13.4427 96.2109 13.528C96.3069 13.6133 96.4562 13.656 96.6589 13.656C97.1069 13.656 97.5815 13.576 98.0829 13.416C98.5842 13.256 99.0962 13.048 99.6189 12.792C100.142 12.536 100.643 12.264 101.123 11.976C101.603 11.688 102.04 11.416 102.435 11.16C102.84 10.904 103.176 10.696 103.443 10.536C103.71 10.376 103.886 10.296 103.971 10.296C104.099 10.296 104.195 10.3387 104.259 10.424C104.334 10.4987 104.371 10.5893 104.371 10.696C104.371 10.7813 104.238 10.9467 103.971 11.192C103.715 11.4373 103.368 11.7253 102.931 12.056C102.494 12.376 102.003 12.7067 101.459 13.048C100.915 13.3893 100.35 13.7093 99.7629 14.008C99.1869 14.3067 98.6269 14.5467 98.0829 14.728C97.5495 14.9093 97.0695 15 96.6429 15C96.0882 15 95.6562 14.792 95.3469 14.376C95.0375 13.96 94.8829 13.3147 94.8829 12.44C94.8829 11.8533 94.9575 11.2613 95.1069 10.664C95.2669 10.0667 95.4802 9.496 95.7469 8.952C96.0242 8.39733 96.3282 7.90667 96.6589 7.48C97.0002 7.04267 97.3575 6.70133 97.7309 6.456C98.1042 6.2 98.4669 6.072 98.8189 6.072C99.4909 6.072 100.019 6.25867 100.403 6.632C100.787 7.00533 100.979 7.496 100.979 8.104ZM96.5309 10.76C96.8615 10.5573 97.2029 10.344 97.5549 10.12C97.9069 9.896 98.2322 9.66667 98.5309 9.432C98.8295 9.19733 99.0695 8.952 99.2509 8.696C99.4429 8.42933 99.5389 8.15733 99.5389 7.88C99.5389 7.48533 99.3255 7.288 98.8989 7.288C98.6322 7.288 98.3495 7.45867 98.0509 7.8C97.7629 8.13067 97.4855 8.56267 97.2189 9.096C96.9522 9.62933 96.7229 10.184 96.5309 10.76ZM111.828 15.576C111.519 15.576 111.3 15.4747 111.172 15.272C111.044 15.0693 110.98 14.7227 110.98 14.232C110.98 13.8373 111.028 13.3467 111.124 12.76C111.231 12.1733 111.359 11.528 111.508 10.824C111.657 10.1093 111.812 9.37333 111.972 8.616C111.321 9.50133 110.601 10.2107 109.812 10.744C109.033 11.2667 108.169 11.608 107.22 11.768C106.996 12.2907 106.74 12.7653 106.452 13.192C106.164 13.6187 105.849 13.96 105.508 14.216C105.167 14.472 104.809 14.6 104.436 14.6C103.977 14.6 103.588 14.4133 103.268 14.04C102.959 13.6667 102.804 13.1227 102.804 12.408C102.804 11.9173 102.868 11.48 102.996 11.096C103.124 10.7013 103.268 10.4187 103.428 10.248C103.279 9.85333 103.204 9.4 103.204 8.888C103.204 8.25867 103.348 7.704 103.636 7.224C103.924 6.73333 104.308 6.35467 104.788 6.088C105.268 5.81067 105.785 5.672 106.34 5.672C106.788 5.672 107.188 5.88 107.54 6.296C107.892 6.712 108.068 7.30933 108.068 8.088C108.068 8.81333 107.94 9.61867 107.684 10.504C108.271 10.28 108.857 9.93867 109.444 9.48C110.041 9.02133 110.617 8.472 111.172 7.832C111.727 7.192 112.228 6.48267 112.676 5.704C112.793 5.512 112.959 5.416 113.172 5.416C113.364 5.416 113.513 5.47467 113.62 5.592C113.737 5.69867 113.796 5.848 113.796 6.04C113.796 6.09333 113.764 6.27467 113.7 6.584C113.647 6.89333 113.572 7.288 113.476 7.768C113.391 8.248 113.295 8.776 113.188 9.352C113.081 9.928 112.975 10.5093 112.868 11.096C112.772 11.6827 112.692 12.2267 112.628 12.728C112.873 12.2587 113.151 11.7467 113.46 11.192C113.769 10.6373 114.084 10.0933 114.404 9.56C114.735 9.016 115.049 8.52 115.348 8.072C115.657 7.624 115.929 7.26667 116.164 7C116.409 6.72267 116.601 6.584 116.74 6.584C116.996 6.584 117.22 6.66933 117.412 6.84C117.604 7.01067 117.7 7.18667 117.7 7.368C117.7 7.61333 117.673 7.98667 117.62 8.488C117.567 8.97867 117.503 9.53333 117.428 10.152C117.353 10.7707 117.279 11.3893 117.204 12.008C117.129 12.6267 117.065 13.1867 117.012 13.688C116.959 14.1893 116.932 14.5627 116.932 14.808C116.932 14.968 116.863 15.112 116.724 15.24C116.585 15.368 116.431 15.432 116.26 15.432C116.143 15.432 116.041 15.3947 115.956 15.32C115.881 15.256 115.823 15.1067 115.78 14.872C115.737 14.6373 115.716 14.2747 115.716 13.784C115.716 13.304 115.732 12.7813 115.764 12.216C115.796 11.64 115.839 11.0693 115.892 10.504C115.956 9.928 116.025 9.41067 116.1 8.952C115.855 9.35733 115.572 9.84267 115.252 10.408C114.943 10.9733 114.617 11.5547 114.276 12.152C113.935 12.7493 113.604 13.3093 113.284 13.832C112.964 14.3547 112.676 14.776 112.42 15.096C112.164 15.416 111.967 15.576 111.828 15.576ZM106.276 10.76C106.404 10.3547 106.505 9.92267 106.58 9.464C106.665 8.99467 106.708 8.52533 106.708 8.056C106.708 7.77867 106.655 7.55467 106.548 7.384C106.441 7.21333 106.297 7.128 106.116 7.128C105.839 7.128 105.567 7.208 105.3 7.368C105.033 7.51733 104.809 7.73067 104.628 8.008C104.457 8.28533 104.372 8.616 104.372 9C104.372 9.48 104.553 9.89067 104.916 10.232C105.289 10.5627 105.743 10.7387 106.276 10.76ZM105.844 11.864C105.119 11.832 104.532 11.6187 104.084 11.224C104.063 11.3627 104.041 11.496 104.02 11.624C103.999 11.7413 103.988 11.8587 103.988 11.976C103.988 12.3067 104.041 12.568 104.148 12.76C104.265 12.9413 104.441 13.032 104.676 13.032C104.868 13.032 105.065 12.9253 105.268 12.712C105.471 12.4987 105.663 12.216 105.844 11.864ZM121.049 15.416C120.643 15.416 120.307 15.2293 120.041 14.856C119.785 14.472 119.657 13.976 119.657 13.368C119.657 12.8027 119.795 12.2427 120.073 11.688C120.361 11.1333 120.739 10.6 121.209 10.088C121.678 9.576 122.19 9.10667 122.745 8.68C123.299 8.24267 123.854 7.864 124.409 7.544C124.974 7.224 125.491 6.97333 125.961 6.792C126.43 6.61067 126.803 6.52 127.081 6.52C127.23 6.52 127.353 6.552 127.449 6.616C127.545 6.66933 127.593 6.77067 127.593 6.92C127.593 7.016 127.555 7.10667 127.481 7.192C127.491 7.192 127.502 7.192 127.513 7.192C127.747 7.192 127.865 7.33067 127.865 7.608C127.865 7.704 127.827 7.90133 127.753 8.2C127.678 8.488 127.593 8.85067 127.497 9.288C127.401 9.72533 127.315 10.2107 127.241 10.744C127.166 11.2667 127.129 11.8 127.129 12.344C127.129 12.8027 127.305 13.032 127.657 13.032C128.051 13.032 128.451 12.9413 128.857 12.76C129.262 12.5787 129.657 12.36 130.041 12.104C130.425 11.8373 130.777 11.576 131.097 11.32C131.417 11.0533 131.689 10.8293 131.913 10.648C132.137 10.4667 132.297 10.376 132.393 10.376C132.478 10.376 132.553 10.4027 132.617 10.456C132.681 10.5093 132.713 10.5947 132.713 10.712C132.713 10.8187 132.606 11.0107 132.393 11.288C132.179 11.5653 131.897 11.88 131.545 12.232C131.193 12.584 130.798 12.9253 130.361 13.256C129.923 13.5867 129.475 13.8587 129.017 14.072C128.558 14.2853 128.121 14.392 127.705 14.392C127.385 14.392 127.091 14.296 126.825 14.104C126.569 13.9013 126.361 13.56 126.201 13.08C126.051 12.6 125.977 11.9387 125.977 11.096V10.696C125.454 11.56 124.905 12.3493 124.329 13.064C123.763 13.7787 123.198 14.3493 122.633 14.776C122.078 15.2027 121.55 15.416 121.049 15.416ZM126.777 7.672C126.723 7.69333 126.649 7.72533 126.553 7.768C126.062 7.992 125.55 8.26933 125.017 8.6C124.494 8.93067 123.982 9.29867 123.481 9.704C122.99 10.1093 122.547 10.5307 122.153 10.968C121.758 11.4053 121.443 11.848 121.209 12.296C120.974 12.744 120.857 13.1813 120.857 13.608C120.857 13.7467 120.883 13.8533 120.937 13.928C121.001 14.0027 121.107 14.04 121.257 14.04C121.47 14.04 121.747 13.9067 122.089 13.64C122.43 13.3627 122.803 13 123.209 12.552C123.625 12.104 124.041 11.608 124.457 11.064C124.873 10.52 125.267 9.97067 125.641 9.416C126.025 8.86133 126.355 8.34933 126.633 7.88C126.675 7.80533 126.723 7.736 126.777 7.672ZM132.064 15.304C131.893 15.304 131.749 15.2347 131.632 15.096C131.514 14.9573 131.456 14.7653 131.456 14.52C131.456 14.3387 131.493 14.04 131.568 13.624C131.653 13.1973 131.744 12.7013 131.84 12.136C131.946 11.5707 132.037 10.984 132.112 10.376C132.186 9.75733 132.224 9.16533 132.224 8.6C132.224 8.32267 132.293 8.12 132.432 7.992C132.581 7.85333 132.746 7.784 132.928 7.784C133.098 7.784 133.226 7.89067 133.312 8.104C133.397 8.31733 133.413 8.744 133.36 9.384C133.85 8.296 134.389 7.42133 134.976 6.76C135.573 6.088 136.165 5.608 136.752 5.32C137.338 5.02133 137.866 4.872 138.336 4.872C138.645 4.872 138.869 4.936 139.008 5.064C139.157 5.18133 139.232 5.31467 139.232 5.464C139.232 5.66667 139.146 5.82667 138.976 5.944C138.816 6.05067 138.533 6.17867 138.128 6.328C137.658 6.50933 137.226 6.72267 136.832 6.968C136.448 7.20267 136.08 7.512 135.728 7.896C135.386 8.28 135.05 8.77067 134.72 9.368C134.389 9.95467 134.058 10.68 133.728 11.544C133.397 12.408 133.045 13.448 132.672 14.664C132.608 14.8987 132.522 15.064 132.416 15.16C132.32 15.256 132.202 15.304 132.064 15.304ZM143.891 6.952C144.179 6.25867 144.451 5.544 144.707 4.808C144.973 4.072 145.213 3.32 145.427 2.552C145.491 2.33867 145.587 2.168 145.715 2.04C145.853 1.90133 146.013 1.832 146.195 1.832C146.323 1.832 146.429 1.88 146.515 1.976C146.611 2.072 146.659 2.2 146.659 2.36C146.659 2.56267 146.579 2.91467 146.419 3.416C146.269 3.91733 146.077 4.552 145.843 5.32C145.619 6.088 145.389 6.97333 145.155 7.976C144.931 8.968 144.739 10.0667 144.579 11.272C144.429 12.4773 144.355 13.7627 144.355 15.128C144.355 15.4267 144.291 15.672 144.163 15.864C144.035 16.0667 143.88 16.168 143.699 16.168C143.592 16.168 143.491 16.1413 143.395 16.088C143.299 16.0347 143.213 15.9067 143.139 15.704C143.075 15.512 143.021 15.208 142.979 14.792C142.936 14.3653 142.915 13.7893 142.915 13.064C142.915 12.5093 142.947 11.9067 143.011 11.256C142.52 12.1413 141.987 12.9147 141.411 13.576C140.845 14.2267 140.296 14.728 139.763 15.08C139.24 15.432 138.792 15.608 138.419 15.608C137.96 15.608 137.587 15.4533 137.299 15.144C137.021 14.8453 136.883 14.3973 136.883 13.8C136.883 13.2773 137.005 12.7387 137.251 12.184C137.496 11.6293 137.821 11.0853 138.227 10.552C138.632 10.008 139.08 9.496 139.571 9.016C140.061 8.536 140.552 8.11467 141.043 7.752C141.544 7.37867 142.008 7.09067 142.435 6.888C142.861 6.67467 143.208 6.568 143.475 6.568C143.581 6.568 143.677 6.60533 143.763 6.68C143.848 6.75467 143.891 6.84533 143.891 6.952ZM143.683 7.448C143.608 7.52267 143.517 7.59733 143.411 7.672C143.304 7.74667 143.187 7.82667 143.059 7.912C142.589 8.24267 142.072 8.62667 141.507 9.064C140.952 9.49067 140.419 9.96 139.907 10.472C139.405 10.9733 138.995 11.5013 138.675 12.056C138.355 12.6107 138.195 13.1813 138.195 13.768C138.195 14.024 138.323 14.152 138.579 14.152C138.931 14.152 139.315 13.9867 139.731 13.656C140.157 13.3147 140.595 12.8453 141.043 12.248C141.491 11.64 141.939 10.9307 142.387 10.12C142.835 9.29867 143.267 8.408 143.683 7.448ZM149.627 15.16C148.998 15.16 148.502 14.92 148.139 14.44C147.777 13.96 147.595 13.336 147.595 12.568C147.595 12.2907 147.633 11.9973 147.707 11.688C147.793 11.368 147.899 11.08 148.027 10.824C147.953 10.7493 147.894 10.648 147.851 10.52C147.809 10.3813 147.787 10.2107 147.787 10.008C147.787 9.37867 147.894 8.80267 148.107 8.28C148.321 7.75733 148.603 7.304 148.955 6.92C149.307 6.52533 149.697 6.22133 150.123 6.008C150.561 5.79467 151.003 5.688 151.451 5.688C152.187 5.688 152.785 5.95467 153.243 6.488C153.702 7.01067 153.931 7.81067 153.931 8.888C153.931 9.45333 153.846 10.0293 153.675 10.616C153.515 11.2027 153.291 11.768 153.003 12.312C152.726 12.856 152.401 13.3413 152.027 13.768C151.665 14.1947 151.275 14.536 150.859 14.792C150.454 15.0373 150.043 15.16 149.627 15.16ZM149.083 10.28C149.147 10.3653 149.179 10.4773 149.179 10.616C149.179 10.776 149.147 10.936 149.083 11.096C149.03 11.256 148.971 11.4747 148.907 11.752C148.843 12.0293 148.811 12.424 148.811 12.936C148.811 13.448 149.014 13.704 149.419 13.704C149.867 13.704 150.283 13.528 150.667 13.176C151.051 12.8133 151.393 12.3493 151.691 11.784C151.99 11.2187 152.219 10.616 152.379 9.976C152.55 9.32533 152.635 8.712 152.635 8.136C152.635 7.76267 152.566 7.50133 152.427 7.352C152.289 7.192 152.038 7.112 151.675 7.112C151.302 7.112 150.913 7.24 150.507 7.496C150.113 7.74133 149.782 8.07733 149.515 8.504C149.249 8.93067 149.115 9.41067 149.115 9.944C149.115 10.0613 149.105 10.1733 149.083 10.28Z" fill="#6E837C"/>
</svg>
