<svg width="366" height="345" viewBox="0 0 366 345" fill="none" xmlns="http://www.w3.org/2000/svg">
<g clip-path="url(#clip0_5_464)">
<path d="M312.599 333.386L306.843 335.29L296.765 313.973L305.261 311.162L312.599 333.386Z" fill="#FFB8B8"/>
<path d="M302.188 335.005L313.289 331.332L315.599 338.328L297.508 344.314C297.205 343.395 297.085 342.425 297.156 341.46C297.227 340.495 297.487 339.553 297.922 338.689C298.356 337.825 298.957 337.054 299.689 336.422C300.421 335.79 301.27 335.308 302.188 335.005Z" fill="#2F2E41"/>
<path d="M274.624 338.679L268.561 338.678L265.677 315.272L274.625 315.272L274.624 338.679Z" fill="#FFB8B8"/>
<path d="M264.231 336.944H275.923V344.313H256.869C256.869 343.345 257.06 342.387 257.43 341.493C257.8 340.599 258.342 339.787 259.026 339.103C259.709 338.418 260.521 337.876 261.414 337.505C262.307 337.135 263.264 336.944 264.231 336.944Z" fill="#2F2E41"/>
<path d="M269.02 251.79L268.712 253.16C264.534 271.677 263.047 298.619 264.294 317.561L265.258 332.193C265.291 332.695 265.514 333.165 265.88 333.508C266.247 333.852 266.73 334.043 267.232 334.043H274.5C274.985 334.043 275.452 333.865 275.815 333.542C276.177 333.22 276.408 332.776 276.465 332.294L282.106 284.299C282.159 283.849 282.364 283.431 282.688 283.114C283.011 282.798 283.433 282.602 283.884 282.559C284.334 282.516 284.786 282.63 285.163 282.88C285.54 283.13 285.82 283.502 285.956 283.934L300.577 327.306C300.697 327.686 300.929 328.022 301.243 328.268C301.557 328.514 301.938 328.66 302.336 328.685L313.438 329.402C313.758 329.423 314.079 329.365 314.372 329.234C314.665 329.103 314.922 328.902 315.121 328.65C315.319 328.397 315.453 328.1 315.511 327.783C315.569 327.467 315.549 327.142 315.453 326.835L308.77 308.442C303.606 291.936 300.83 266.855 300.527 249.561C300.523 249.288 300.461 249.019 300.348 248.771C300.234 248.523 300.071 248.301 299.867 248.119C299.664 247.937 299.425 247.799 299.166 247.714C298.907 247.629 298.634 247.599 298.362 247.625L270.762 250.256C270.347 250.295 269.956 250.465 269.643 250.74C269.33 251.016 269.112 251.384 269.02 251.79Z" fill="#2F2E41"/>
<path d="M285.182 174.904C291.889 174.904 297.327 169.461 297.327 162.747C297.327 156.033 291.889 150.59 285.182 150.59C278.474 150.59 273.036 156.033 273.036 162.747C273.036 169.461 278.474 174.904 285.182 174.904Z" fill="#A0616A"/>
<path d="M277.209 255.773C274.79 255.768 272.373 255.641 269.967 255.391C269.194 255.307 268.485 254.923 267.99 254.323C267.496 253.722 267.257 252.952 267.322 252.176L271.463 212.129C272.462 200.802 274.005 189.867 281.811 180.607C282.076 180.293 282.403 180.037 282.772 179.856C283.14 179.675 283.542 179.572 283.953 179.554L284.246 179.543C287.325 179.414 288.744 179.526 289.143 179.927L291.291 182.045C304.387 191.739 304.931 253.154 301.705 251.944C301.081 251.711 293.627 251.945 293.108 252.299C288.901 255.17 282.14 255.773 277.209 255.773Z" fill="#6E837C"/>
<path d="M229.556 233.545C229.865 232.886 230.314 232.303 230.873 231.838C231.431 231.372 232.085 231.034 232.788 230.849C233.491 230.663 234.226 230.634 234.941 230.764C235.657 230.893 236.335 231.178 236.928 231.599L251.301 221.307L251.649 230.492L237.948 238.857C237.176 239.808 236.083 240.443 234.875 240.641C233.667 240.839 232.429 240.587 231.394 239.932C230.36 239.277 229.601 238.265 229.263 237.088C228.924 235.911 229.028 234.65 229.556 233.545Z" fill="#A0616A"/>
<path d="M243.829 236.26L238.961 227.683L283.302 195.68C284.303 194.958 285.441 194.45 286.647 194.188C287.853 193.926 289.099 193.916 290.309 194.158C291.518 194.401 292.665 194.89 293.677 195.596C294.69 196.301 295.546 197.209 296.192 198.26C296.838 199.312 297.26 200.486 297.433 201.709C297.605 202.931 297.524 204.177 297.194 205.366C296.864 206.556 296.292 207.665 295.515 208.624C294.737 209.582 293.771 210.37 292.675 210.938L243.829 236.26Z" fill="#6E837C"/>
<path d="M290.639 173.026C291.05 173.432 291.594 173.676 292.17 173.713C292.747 173.75 293.317 173.577 293.777 173.227C296.639 171.103 299.152 168.459 300.639 165.235C302.343 161.54 302.533 157.005 300.479 153.494C298.742 150.525 295.675 148.609 292.618 147.036C291.431 146.366 290.153 145.872 288.824 145.572C287.48 145.275 286.074 145.503 284.891 146.207C284.313 146.57 283.857 147.099 283.584 147.725C283.31 148.351 283.232 149.046 283.358 149.717C281.89 148.04 280.009 146.777 277.903 146.051C276.576 145.532 275.124 145.427 273.737 145.749C271.797 146.3 270.381 148.025 269.606 149.888C268.98 151.306 268.763 152.871 268.982 154.405C269.097 155.168 269.371 155.899 269.785 156.55C270.2 157.201 270.747 157.758 271.39 158.184C272.994 159.177 275.04 159.105 276.882 158.7C278.724 158.294 280.507 157.588 282.384 157.41C284.261 157.231 286.352 157.7 287.495 159.202C288.299 160.259 288.506 161.641 288.687 162.958L289.626 169.808C289.703 170.799 289.956 171.768 290.373 172.67C290.445 172.8 290.534 172.92 290.639 173.026Z" fill="#2F2E41"/>
<path d="M316.844 258.207C316.255 257.781 315.766 257.23 315.412 256.595C315.058 255.959 314.848 255.254 314.796 254.528C314.744 253.802 314.852 253.074 315.111 252.394C315.371 251.714 315.777 251.1 316.299 250.594L308.859 234.551L317.94 235.909L323.614 250.936C324.405 251.871 324.825 253.064 324.796 254.289C324.767 255.514 324.29 256.685 323.455 257.581C322.621 258.478 321.487 259.036 320.268 259.152C319.05 259.267 317.831 258.931 316.844 258.207Z" fill="#A0616A"/>
<path d="M321.819 241.164L313.25 246.037L281.278 201.654C280.557 200.652 280.049 199.512 279.788 198.306C279.526 197.099 279.516 195.851 279.758 194.64C280 193.429 280.489 192.282 281.194 191.268C281.899 190.255 282.805 189.399 283.856 188.752C284.907 188.105 286.08 187.682 287.301 187.509C288.523 187.337 289.767 187.418 290.955 187.749C292.144 188.079 293.252 188.651 294.209 189.429C295.167 190.208 295.954 191.175 296.522 192.272L321.819 241.164Z" fill="#6E837C"/>
<path d="M243.768 81.8115H241.879V29.9926C241.879 22.0381 238.722 14.4093 233.102 8.78463C227.483 3.15993 219.862 3.93829e-06 211.915 0H102.231C94.2836 0 86.6622 3.15992 81.0428 8.78462C75.4235 14.4093 72.2666 22.0381 72.2666 29.9926V314.28C72.2666 322.235 75.4235 329.863 81.0428 335.488C86.6622 341.113 94.2836 344.273 102.231 344.273H211.915C219.862 344.273 227.483 341.113 233.102 335.488C238.721 329.863 241.878 322.235 241.878 314.28V118.697H243.768L243.768 81.8115Z" fill="#6E837C" fill-opacity="0.7"/>
<path d="M213.124 7.80011H198.808C199.466 9.41597 199.717 11.1691 199.539 12.9051C199.361 14.6411 198.76 16.3066 197.787 17.755C196.815 19.2033 195.501 20.39 193.962 21.2105C192.424 22.0311 190.707 22.4602 188.963 22.4601H126.127C124.383 22.46 122.667 22.0308 121.128 21.2102C119.59 20.3897 118.276 19.2029 117.304 17.7546C116.331 16.3063 115.73 14.6408 115.552 12.9049C115.374 11.169 115.625 9.4159 116.284 7.80011H102.911C96.9766 7.80011 91.285 10.1599 87.0885 14.3604C82.892 18.5608 80.5345 24.2579 80.5345 30.1983V314.073C80.5345 320.013 82.892 325.711 87.0885 329.911C91.285 334.111 96.9766 336.471 102.911 336.471H213.124C219.058 336.471 224.75 334.111 228.947 329.911C233.143 325.711 235.501 320.013 235.501 314.073V30.1978C235.5 24.2575 233.143 18.5606 228.946 14.3602C224.75 10.1598 219.058 7.80011 213.124 7.80011Z" fill="white"/>
<path d="M158.018 175.717C147.748 175.717 137.709 172.669 129.171 166.958C120.632 161.248 113.977 153.13 110.047 143.634C106.117 134.137 105.089 123.687 107.092 113.605C109.096 103.524 114.041 94.2628 121.302 86.9943C128.564 79.7258 137.816 74.7759 147.888 72.7705C157.96 70.7651 168.4 71.7944 177.888 75.7281C187.375 79.6618 195.485 86.3232 201.19 94.8701C206.895 103.417 209.941 113.465 209.941 123.745C209.925 137.524 204.45 150.734 194.715 160.478C184.981 170.221 171.784 175.702 158.018 175.717ZM158.018 72.7618C147.944 72.7618 138.096 75.7519 129.72 81.354C121.344 86.956 114.816 94.9185 110.961 104.234C107.106 113.55 106.097 123.801 108.062 133.691C110.027 143.581 114.878 152.665 122.002 159.795C129.125 166.925 138.201 171.781 148.081 173.748C157.961 175.715 168.202 174.705 177.509 170.847C186.816 166.988 194.771 160.453 200.368 152.069C205.964 143.685 208.952 133.828 208.952 123.745C208.936 110.228 203.565 97.269 194.016 87.7112C184.468 78.1534 171.521 72.7771 158.018 72.7618Z" fill="#3F3D56"/>
<path d="M177.088 108.647C181.535 104.886 184.236 98.944 183.528 93.1599C182.819 87.3758 178.432 82.0584 172.741 80.8301C167.05 79.6018 160.562 83.0019 158.834 88.5665C157.882 77.8381 156.786 66.6602 151.088 57.524C145.928 49.2513 136.991 43.332 127.305 42.273C117.62 41.214 107.422 45.2136 101.382 52.8656C95.3411 60.5176 93.8621 71.6421 98.0927 80.4272C101.209 86.8989 106.951 91.7153 112.967 95.6336C132.16 108.134 155.969 112.358 178.624 109.021L177.088 108.647Z" fill="#C5E481"/>
<path d="M110.96 45.4353C118.951 51.951 126.283 59.2382 132.848 67.1917C143.123 79.5962 151.438 93.5039 157.502 108.43C157.946 109.519 156.18 109.993 155.741 108.916C145.818 84.6579 129.977 63.2767 109.668 46.7283C108.756 45.985 110.055 44.6981 110.96 45.4353Z" fill="white"/>
<path d="M113.679 226.7C116.683 226.7 119.118 224.262 119.118 221.255C119.118 218.248 116.683 215.811 113.679 215.811C110.675 215.811 108.239 218.248 108.239 221.255C108.239 224.262 110.675 226.7 113.679 226.7Z" fill="#3F3D56"/>
<path d="M203.84 225.215H134.609C133.56 225.215 132.553 224.798 131.811 224.055C131.07 223.313 130.653 222.306 130.653 221.255C130.653 220.205 131.07 219.198 131.811 218.455C132.553 217.713 133.56 217.296 134.609 217.296H203.84C204.889 217.296 205.895 217.713 206.637 218.455C207.379 219.198 207.796 220.205 207.796 221.255C207.796 222.306 207.379 223.313 206.637 224.055C205.895 224.798 204.889 225.215 203.84 225.215Z" fill="#CCCCCC"/>
<path d="M182.368 225.263H134.323C133.261 225.263 132.242 224.841 131.492 224.089C130.741 223.338 130.319 222.318 130.319 221.255C130.319 220.192 130.741 219.173 131.492 218.422C132.242 217.67 133.261 217.248 134.323 217.248H182.368C183.429 217.248 184.448 217.67 185.199 218.422C185.949 219.173 186.371 220.192 186.371 221.255C186.371 222.318 185.949 223.338 185.199 224.089C184.448 224.841 183.429 225.263 182.368 225.263Z" fill="#6B4F5B"/>
<path d="M113.679 250.459C116.683 250.459 119.118 248.021 119.118 245.014C119.118 242.007 116.683 239.57 113.679 239.57C110.675 239.57 108.239 242.007 108.239 245.014C108.239 248.021 110.675 250.459 113.679 250.459Z" fill="#3F3D56"/>
<path d="M203.84 248.974H134.609C133.56 248.974 132.553 248.557 131.811 247.814C131.07 247.072 130.653 246.065 130.653 245.014C130.653 243.964 131.07 242.957 131.811 242.214C132.553 241.472 133.56 241.055 134.609 241.055H203.84C204.889 241.055 205.895 241.472 206.637 242.214C207.379 242.957 207.796 243.964 207.796 245.014C207.796 246.065 207.379 247.072 206.637 247.814C205.895 248.557 204.889 248.974 203.84 248.974Z" fill="#CCCCCC"/>
<path d="M113.679 274.218C116.683 274.218 119.118 271.78 119.118 268.773C119.118 265.766 116.683 263.329 113.679 263.329C110.675 263.329 108.239 265.766 108.239 268.773C108.239 271.78 110.675 274.218 113.679 274.218Z" fill="#3F3D56"/>
<path d="M203.84 272.733H134.609C133.56 272.733 132.553 272.316 131.811 271.573C131.07 270.831 130.653 269.824 130.653 268.773C130.653 267.723 131.07 266.716 131.811 265.973C132.553 265.231 133.56 264.813 134.609 264.813H203.84C204.889 264.813 205.895 265.231 206.637 265.973C207.379 266.716 207.796 267.723 207.796 268.773C207.796 269.824 207.379 270.831 206.637 271.573C205.895 272.316 204.889 272.733 203.84 272.733Z" fill="#CCCCCC"/>
<path d="M166.543 249.022H134.323C133.261 249.022 132.242 248.6 131.492 247.848C130.741 247.097 130.319 246.077 130.319 245.014C130.319 243.951 130.741 242.932 131.492 242.181C132.242 241.429 133.261 241.007 134.323 241.007H166.543C167.605 241.007 168.624 241.429 169.374 242.181C170.125 242.932 170.547 243.951 170.547 245.014C170.547 246.077 170.125 247.097 169.374 247.848C168.624 248.6 167.605 249.022 166.543 249.022Z" fill="#6B4F5B"/>
<path d="M195.225 272.781H134.323C133.261 272.781 132.242 272.359 131.492 271.607C130.741 270.856 130.319 269.836 130.319 268.773C130.319 267.71 130.741 266.691 131.492 265.94C132.242 265.188 133.261 264.766 134.323 264.766H195.225C196.287 264.766 197.305 265.188 198.056 265.94C198.807 266.691 199.228 267.71 199.228 268.773C199.228 269.836 198.807 270.856 198.056 271.607C197.305 272.359 196.287 272.781 195.225 272.781Z" fill="#6B4F5B"/>
<path d="M185.509 115.663H178.712V95.5601C178.713 94.9696 178.947 94.4034 179.365 93.9858C179.782 93.5682 180.347 93.3334 180.937 93.3327H183.283C183.873 93.3334 184.439 93.5682 184.856 93.9858C185.273 94.4034 185.508 94.9696 185.509 95.5601V115.663Z" fill="#3F3D56"/>
<path d="M189.629 149.873H124.661L124.428 113.221C124.426 112.655 124.537 112.094 124.755 111.572C124.973 111.049 125.294 110.576 125.698 110.18L142.019 94.2688C142.793 93.5113 143.831 93.0836 144.913 93.0755L172.229 92.8256C172.848 92.8218 173.461 92.9541 174.023 93.2133C174.586 93.4725 175.085 93.8522 175.485 94.3256L175.487 94.3285L188.461 110.255C189.216 111.183 189.628 112.342 189.629 113.539L189.629 149.873Z" fill="#3F3D56"/>
<path d="M189.629 149.873H154.716V117.025C154.716 116.025 155.072 115.057 155.721 114.295L170.89 96.4935C171.285 96.03 171.775 95.658 172.327 95.403C172.879 95.1479 173.48 95.016 174.088 95.0165H174.104C174.715 95.0184 175.318 95.1536 175.871 95.4129C176.424 95.6722 176.914 96.0492 177.307 96.5177L188.644 110.028C189.28 110.786 189.629 111.744 189.629 112.734V149.873Z" fill="#6B4F5B"/>
<path d="M174.819 137.256H169.768C169.44 137.256 169.126 137.126 168.894 136.894C168.662 136.662 168.532 136.347 168.532 136.019V131.78C168.532 131.452 168.662 131.137 168.894 130.905C169.126 130.673 169.44 130.543 169.768 130.542H174.819C175.147 130.543 175.461 130.673 175.693 130.905C175.925 131.137 176.055 131.452 176.056 131.78V136.019C176.055 136.347 175.925 136.662 175.693 136.894C175.461 137.126 175.147 137.256 174.819 137.256Z" fill="white"/>
<path d="M174.819 126.394H169.768C169.44 126.393 169.126 126.263 168.894 126.031C168.662 125.799 168.532 125.484 168.532 125.156V121.015C168.532 120.687 168.662 120.373 168.894 120.141C169.126 119.909 169.44 119.778 169.768 119.778H174.819C175.147 119.778 175.461 119.909 175.693 120.141C175.925 120.373 176.055 120.687 176.056 121.015V125.156C176.055 125.484 175.925 125.799 175.693 126.031C175.461 126.263 175.147 126.393 174.819 126.394Z" fill="white"/>
<path d="M143.581 135.606H138.53C138.202 135.606 137.888 135.475 137.656 135.243C137.424 135.011 137.294 134.697 137.293 134.369V130.13C137.294 129.802 137.424 129.487 137.656 129.255C137.888 129.023 138.202 128.893 138.53 128.892H143.581C143.909 128.893 144.223 129.023 144.455 129.255C144.686 129.487 144.817 129.802 144.817 130.13V134.369C144.817 134.697 144.686 135.011 144.455 135.243C144.223 135.475 143.909 135.606 143.581 135.606Z" fill="white"/>
<path d="M143.581 124.743H138.53C138.202 124.743 137.888 124.612 137.656 124.38C137.424 124.148 137.294 123.834 137.293 123.506V119.365C137.294 119.037 137.424 118.723 137.656 118.491C137.888 118.259 138.202 118.128 138.53 118.128H143.581C143.909 118.128 144.223 118.259 144.455 118.491C144.686 118.723 144.817 119.037 144.817 119.365V123.506C144.817 123.834 144.686 124.148 144.455 124.38C144.223 124.612 143.909 124.743 143.581 124.743Z" fill="white"/>
<path d="M202.202 150.301H113.833C113.701 150.301 113.576 150.249 113.483 150.156C113.39 150.064 113.338 149.938 113.338 149.806C113.338 149.675 113.39 149.549 113.483 149.456C113.576 149.364 113.701 149.311 113.833 149.311H202.202C202.334 149.311 202.459 149.364 202.552 149.456C202.645 149.549 202.697 149.675 202.697 149.806C202.697 149.938 202.645 150.064 202.552 150.156C202.459 150.249 202.334 150.301 202.202 150.301Z" fill="#3F3D56"/>
</g>
<defs>
<clipPath id="clip0_5_464">
<rect width="366" height="345" fill="white"/>
</clipPath>
</defs>
</svg>
