<svg width="53" height="54" viewBox="0 0 53 54" fill="none" xmlns="http://www.w3.org/2000/svg">
<g clip-path="url(#clip0_1_633)">
<path d="M20.2891 39.4219C30.1223 39.4219 38.0938 31.4504 38.0938 21.6172C38.0938 11.7839 30.1223 3.8125 20.2891 3.8125C10.4558 3.8125 2.48438 11.7839 2.48438 21.6172C2.48438 31.4504 10.4558 39.4219 20.2891 39.4219Z" fill="#EAEAEA"/>
<path d="M36.1328 7.53906C36.1328 7.72447 36.0778 7.90571 35.9748 8.05987C35.8718 8.21403 35.7254 8.33419 35.5541 8.40514C35.3828 8.47609 35.1943 8.49466 35.0125 8.45849C34.8306 8.42231 34.6636 8.33303 34.5325 8.20193C34.4014 8.07083 34.3121 7.90379 34.2759 7.72195C34.2398 7.5401 34.2583 7.35161 34.3293 7.18032C34.4002 7.00902 34.5204 6.86262 34.6746 6.75961C34.8287 6.6566 35.01 6.60162 35.1954 6.60162C35.444 6.60162 35.6824 6.70039 35.8582 6.87619C36.034 7.052 36.1328 7.29044 36.1328 7.53906Z" fill="#4C241D"/>
<path d="M27.3555 31.1406C25.122 34.2616 24.112 38.0938 24.5171 41.9102C24.9223 45.7265 26.7144 49.2613 29.5533 51.8438H42.4936C44.1078 50.3746 45.3974 48.5844 46.2797 46.5879C47.162 44.5915 47.6176 42.4327 47.6172 40.25C47.6136 39.6966 47.581 39.1437 47.5195 38.5938H47.546C48.7777 38.5872 49.9565 38.0922 50.8238 37.2175C51.691 36.3428 52.1758 35.1598 52.1719 33.9281V25.8688C52.1758 24.637 51.691 23.454 50.8238 22.5793C49.9565 21.7046 48.7777 21.2097 47.546 21.2031H43.0625V15.4062H24.8438L28.9844 21.2031V29.1829C28.3899 29.7909 27.8452 30.4456 27.3555 31.1406ZM43.0625 24.5156H47.546C47.8995 24.5213 48.2362 24.6669 48.4825 24.9206C48.7287 25.1743 48.8642 25.5153 48.8594 25.8688V33.9281C48.8642 34.2816 48.7287 34.6226 48.4825 34.8763C48.2362 35.1299 47.8995 35.2756 47.546 35.2812H46.8007C46.024 32.9956 44.7469 30.9122 43.0625 29.1829V24.5156Z" fill="#6B4F5B" stroke="#4C241D" stroke-width="1.875" stroke-linecap="round" stroke-linejoin="round"/>
<path d="M8.28125 33.625H29.8125V41.0781C29.8125 43.9333 28.6783 46.6716 26.6593 48.6906C24.6404 50.7095 21.9021 51.8438 19.0469 51.8438C16.1917 51.8438 13.4534 50.7095 11.4344 48.6906C9.41548 46.6716 8.28125 43.9333 8.28125 41.0781V33.625Z" fill="white" stroke="#4C241D" stroke-width="1.875" stroke-linecap="round" stroke-linejoin="round"/>
<path d="M8.28129 35.2813V43.5625C7.19368 43.5625 6.1506 43.1304 5.38154 42.3614C4.61248 41.5923 4.18042 40.5492 4.18042 39.4616V39.3788C4.1813 38.2918 4.61374 37.2495 5.38271 36.4812C6.15168 35.7129 7.19425 35.2812 8.28129 35.2813Z" stroke="#4C241D" stroke-width="1.875" stroke-linecap="round" stroke-linejoin="round"/>
<path d="M43.0625 20.375V26.1719" stroke="#4C241D" stroke-width="1.875" stroke-linecap="round" stroke-linejoin="round"/>
<path d="M28.9844 21.2031H37.2656" stroke="#4C241D" stroke-width="1.875" stroke-linecap="round" stroke-linejoin="round"/>
<path d="M2.48438 51.8438H52.1719" stroke="#4C241D" stroke-width="1.875" stroke-linecap="round" stroke-linejoin="round"/>
<path d="M14.0781 30.3125V29.0703C14.0781 28.7409 14.209 28.4249 14.442 28.192C14.6749 27.959 14.9909 27.8281 15.3203 27.8281H21.1172C21.4466 27.8281 21.7626 27.6973 21.9955 27.4643C22.2285 27.2313 22.3594 26.9154 22.3594 26.5859V23.2734C22.3594 22.944 22.2285 22.628 21.9955 22.3951C21.7626 22.1621 21.4466 22.0312 21.1172 22.0312H19.4609C19.1315 22.0312 18.8155 21.9004 18.5826 21.6674C18.3496 21.4345 18.2188 21.1185 18.2188 20.7891C18.2188 20.4596 18.3496 20.1437 18.5826 19.9107C18.8155 19.6777 19.1315 19.5469 19.4609 19.5469H20.2891C20.6185 19.5469 20.9345 19.416 21.1674 19.183C21.4004 18.9501 21.5312 18.6341 21.5312 18.3047V14.5781" stroke="#B5A19C" stroke-width="1.875" stroke-linecap="round" stroke-linejoin="round"/>
<path d="M18.2188 31.1406V25.7578C18.2188 25.4284 18.0879 25.1124 17.8549 24.8795C17.622 24.6465 17.306 24.5156 16.9766 24.5156H16.1484C15.819 24.5156 15.503 24.3848 15.2701 24.1518C15.0371 23.9188 14.9062 23.6029 14.9062 23.2734V21.6172C14.9062 21.2877 14.7754 20.9718 14.5424 20.7388C14.3095 20.5059 13.9935 20.375 13.6641 20.375C13.3346 20.375 13.0187 20.2441 12.7857 20.0112C12.5527 19.7782 12.4219 19.4623 12.4219 19.1328V18.3047C12.4219 17.9752 12.5527 17.6593 12.7857 17.4263C13.0187 17.1934 13.3346 17.0625 13.6641 17.0625H15.3203C15.6498 17.0625 15.9657 16.9316 16.1987 16.6987C16.4316 16.4657 16.5625 16.1498 16.5625 15.8203V11.2656" stroke="#B5A19C" stroke-width="1.875" stroke-linecap="round" stroke-linejoin="round"/>
<path d="M28.2631 2.98438L25.8218 5.42569" stroke="#4C241D" stroke-width="1.875" stroke-linecap="round" stroke-linejoin="round"/>
<path d="M25.8218 2.98438L28.2631 5.42569" stroke="#4C241D" stroke-width="1.875" stroke-linecap="round" stroke-linejoin="round"/>
<path d="M44.7188 39.4219C44.7188 39.4219 44.7188 45.2188 41.4062 48.5312" stroke="#B5A19C" stroke-width="1.875" stroke-linecap="round" stroke-linejoin="round"/>
<path d="M15.7344 33.625V36.9375" stroke="#4C241D" stroke-width="1.875" stroke-linecap="round" stroke-linejoin="round"/>
<path d="M19.0469 45.2188H12.4219V39.113L14.0781 36.9375H17.3906L19.0469 39.2198V45.2188Z" fill="#A9BA5A" stroke="#4C241D" stroke-width="1.875" stroke-linecap="round" stroke-linejoin="round"/>
</g>
<defs>
<clipPath id="clip0_1_633">
<rect width="53" height="53" fill="white" transform="translate(0 0.5)"/>
</clipPath>
</defs>
</svg>
